<svg xmlns="http://www.w3.org/2000/svg" viewBox="0 0 200 200" width="400" height="400">
<style>
  @keyframes pulse {
    0% { opacity: 0.3; }
    50% { opacity: 1; }
    100% { opacity: 0.3; }
  }
  @keyframes scan {
    0% { transform: translateY(0); }
    100% { transform: translateY(50px); }
  }
</style>

<!-- Robot Body -->
<rect x="60" y="40" width="80" height="120" fill="#4A4A4A" rx="10"/>
<rect x="70" y="50" width="60" height="100" fill="#333" rx="5"/>

<!-- Head -->
<circle cx="100" cy="35" r="15" fill="#666"/>
<rect x="85" y="20" width="30" height="15" fill="#555" rx="5"/>

<!-- Scanning Eye -->
<g transform="translate(100 35)">
  <circle r="5" fill="#00FF00">
    <animate attributeName="opacity" values="1;0.3;1" dur="1.5s" repeatCount="indefinite"/>
  </circle>
  <line y1="0" y2="50" stroke="#00FF00" stroke-width="2" opacity="0.3">
    <animateTransform attributeName="transform" type="translate" values="0 0; 0 50" dur="2s" repeatCount="indefinite"/>
  </line>
</g>

<!-- Arm Joints -->
<circle cx="50" cy="80" r="8" fill="#666"/>
<circle cx="150" cy="80" r="8" fill="#666"/>

<!-- Arms -->
<path d="M50 80 Q30 100 20 120 L40 120 Q50 100 50 80" fill="#4A4A4A"/>
<path d="M150 80 Q170 100 180 120 L160 120 Q150 100 150 80" fill="#4A4A4A"/>

<!-- Status Lights -->
<circle cx="90" cy="160" r="3" fill="#00FF00" style="animation: pulse 1s infinite"/>
<circle cx="100" cy="160" r="3" fill="#FF0000" style="animation: pulse 1s infinite 0.3s"/>
<circle cx="110" cy="160" r="3" fill="#00FF00" style="animation: pulse 1s infinite 0.6s"/>
</svg>
